<svg width="439" height="58" viewBox="0 0 439 58" fill="none" xmlns="http://www.w3.org/2000/svg">
<path d="M0.84 57.16V13H9.8V14.92C14.6 13.192 18.44 12.36 22.28 12.36C34.44 12.36 39.88 19.4 39.88 29.64C39.88 39.24 32.84 45.64 23.24 45.64C16.52 45.64 12.36 43.592 9.8 38.92H9.48V57.16H0.84ZM9.8 23.24V27.72C9.8 33.992 13.704 37.64 20.488 37.64C28.168 37.64 30.6 34.248 30.6 29C30.6 23.176 27.464 20.36 20.68 20.36C16.84 20.36 13 21.576 9.8 23.24ZM44.0375 45V0.839996H52.9975V45H44.0375ZM60.1995 23.112V14.792C66.2155 13.128 72.4235 12.36 76.6475 12.36C86.2475 12.36 91.6875 17.16 91.6875 25.8V45H83.0475V38.6H82.7275C80.9355 43.208 77.7355 45.64 70.5675 45.64C61.6075 45.64 56.8075 41.8 56.8075 35.336C56.8075 28.872 61.4155 25.288 70.1835 24.712L83.0475 23.88C82.0875 21.256 79.3995 20.04 74.4715 20.04C70.2475 20.04 66.3435 20.872 60.1995 23.112ZM82.9835 30.472L70.8235 31.24C67.4315 31.432 65.7675 32.584 65.7675 34.76C65.7675 37 67.6235 38.152 71.9115 38.152C78.7595 38.152 82.7275 35.4 82.9835 30.472ZM96.4725 45V13H105.113V15.688C111.833 13.064 114.905 12.36 118.681 12.36C126.937 12.36 132.312 17.16 132.312 24.52V45H123.353V27.72C123.353 23.112 120.601 20.36 116.057 20.36C113.817 20.36 109.849 21.576 105.432 23.88V45H96.4725ZM137.1 45V13H145.74V15.688C152.46 13.064 155.532 12.36 159.308 12.36C167.564 12.36 172.94 17.16 172.94 24.52V45H163.98V27.72C163.98 23.112 161.228 20.36 156.684 20.36C154.444 20.36 150.476 21.576 146.06 23.88V45H137.1ZM211.967 35.208V43.208C207.935 44.744 203.007 45.64 197.247 45.64C183.999 45.64 176.447 39.496 176.447 29C176.447 18.696 183.743 12.36 195.519 12.36C207.359 12.36 214.528 18.76 214.528 28.616C214.528 29.896 214.399 30.984 214.208 32.008H185.855C187.135 36.104 190.911 37.96 198.207 37.96C202.687 37.96 207.487 37.128 211.967 35.208ZM185.791 25.288H205.119C203.967 21.384 200.767 19.4 195.455 19.4C190.143 19.4 186.879 21.384 185.791 25.288ZM218.355 45V13H226.995V16.328C231.795 13.64 236.275 12.36 240.115 12.36C241.459 12.36 242.803 12.616 244.275 13V20.872C243.443 20.616 242.035 20.36 240.563 20.36C236.211 20.36 232.435 21.64 227.315 24.52V45H218.355Z" fill="#0D0C0C"/>
<path d="M293.537 35.208V43.208C289.505 44.744 284.577 45.64 278.817 45.64C265.569 45.64 258.017 39.496 258.017 29C258.017 18.696 265.313 12.36 277.089 12.36C288.929 12.36 296.097 18.76 296.097 28.616C296.097 29.896 295.969 30.984 295.777 32.008H267.425C268.705 36.104 272.481 37.96 279.777 37.96C284.257 37.96 289.057 37.128 293.537 35.208ZM267.361 25.288H286.689C285.537 21.384 282.337 19.4 277.025 19.4C271.713 19.4 268.449 21.384 267.361 25.288ZM308.339 45L294.515 13H304.179L313.971 35.72H314.419L324.211 13H333.747L319.923 45H308.339ZM367.667 35.208V43.208C363.635 44.744 358.707 45.64 352.947 45.64C339.699 45.64 332.147 39.496 332.147 29C332.147 18.696 339.443 12.36 351.219 12.36C363.059 12.36 370.227 18.76 370.227 28.616C370.227 29.896 370.099 30.984 369.907 32.008H341.555C342.835 36.104 346.611 37.96 353.907 37.96C358.387 37.96 363.187 37.128 367.667 35.208ZM341.491 25.288H360.819C359.667 21.384 356.467 19.4 351.155 19.4C345.843 19.4 342.579 21.384 341.491 25.288ZM374.055 45V13H382.695V15.688C389.415 13.064 392.487 12.36 396.263 12.36C404.519 12.36 409.895 17.16 409.895 24.52V45H400.935V27.72C400.935 23.112 398.183 20.36 393.639 20.36C391.399 20.36 387.431 21.576 383.015 23.88V45H374.055ZM417.882 32.84V20.68H412.122V13H417.882V3.72H426.842V13H438.683V20.68H426.842V32.2C426.842 36.232 428.762 37.64 432.923 37.64C434.65 37.64 437.083 37.448 439.003 36.744V44.744C437.339 45.384 434.202 45.64 431.962 45.64C422.362 45.64 417.882 40.648 417.882 32.84Z" fill="#F51B1B"/>
</svg>
